<svg height="304pt" viewBox="0 0 111 304" width="111pt" xmlns="http://www.w3.org/2000/svg"><g transform="translate(4 300.21)"><path d="m-4 4v-304.21h111.34v304.21z" fill="#fff"/><path d="m24.72-296.21h-22.75v18.5h22.75z" fill="#d3d3d3" stroke="#000"/><text font-family="Times,serif" font-size="9" text-anchor="middle" x="13.34" y="-283.66">A</text><ellipse cx="39.34" cy="-36.77" fill="#add8e6" rx="36.77" ry="36.77" stroke="#000"/><text font-family="Times,serif" font-size="9" text-anchor="middle" x="39.34" y="-33.47">A XOR B</text><path d="m11.49-277.38c-5.25 25.78-18.97 104.66-5.15 167.84 2.25 10.24 6.09 20.77 10.38 30.49" fill="none" stroke="#f00" stroke-width=".63"/><path d="m19.83-80.66 1.07 10.54-7.41-7.57z" fill="#f00" stroke="#f00" stroke-width=".63"/><ellipse cx="39.34" cy="-217.66" fill="#fff" rx="24.04" ry="24.04" stroke="#000"/><text font-family="Times,serif" font-size="9" text-anchor="middle" x="39.34" y="-214.36">1384</text><path d="m16.64-277.43c2.63 6.82 6.51 16.85 10.31 26.7" fill="none" stroke="#008000" stroke-width=".53"/><path d="m30.21-252.01.34 10.59-6.87-8.07z" fill="#008000" stroke="#008000" stroke-width=".53"/><path d="m103.34-226.91h-22v18.5h22z" fill="#d3d3d3" stroke="#000"/><text font-family="Times,serif" font-size="9" text-anchor="middle" x="92.34" y="-214.36">B</text><path d="m91.48-208.16c-2.03 18.36-7.79 62.92-19.14 98.62-3.01 9.48-6.96 19.35-11.08 28.62" fill="none" stroke="#008000" stroke-width="1.41"/><path d="m64.47-79.52-7.37 7.62 1.01-10.55z" fill="#008000" stroke="#008000" stroke-width="1.41"/><ellipse cx="39.34" cy="-133.58" fill="#fff" rx="24.04" ry="24.04" stroke="#000"/><text font-family="Times,serif" font-size="9" text-anchor="middle" x="39.34" y="-130.28">1252</text><path d="m86.87-208.19c-6.81 10.55-18.79 29.1-29.01 44.94" fill="none" stroke="#f00" stroke-width=".55"/><path d="m60.91-161.52-8.37 6.5 2.49-10.3z" fill="#f00" stroke="#f00" stroke-width=".55"/><g stroke="#008000"><path d="m39.34-109.14v21.73" fill="none" stroke-width="2.35"/><path d="m42.85-87.42-3.5 10-3.5-10z" fill="#008000" stroke-width="2.35"/><path d="m39.34-193.36v24.8" fill="none" stroke-width=".42"/><path d="m42.85-168.58-3.51 10-3.49-10z" fill="#008000" stroke-width=".42"/></g></g></svg>